<?xml version="1.0" standalone="no"?>
<!DOCTYPE svg PUBLIC "-//W3C//DTD SVG 20010904//EN"
 "http://www.w3.org/TR/2001/REC-SVG-20010904/DTD/svg10.dtd">
<svg version="1.0" xmlns="http://www.w3.org/2000/svg"
 width="512.000000pt" height="512.000000pt" viewBox="0 0 512.000000 512.000000"
 preserveAspectRatio="xMidYMid meet">

<g transform="translate(0.000000,512.000000) scale(0.100000,-0.100000)"
fill="#000000" stroke="none">
<path d="M2330 5110 c-565 -56 -1088 -287 -1493 -659 -440 -406 -712 -913
-809 -1514 -31 -194 -31 -555 0 -752 45 -284 117 -512 243 -764 249 -502 648
-902 1150 -1150 248 -124 479 -197 762 -243 194 -31 555 -31 752 0 284 45 512
117 764 243 504 250 901 647 1150 1150 126 252 198 480 243 764 31 197 31 558
0 752 -46 283 -119 514 -243 762 -248 502 -648 901 -1150 1150 -250 125 -480
198 -754 241 -148 23 -476 34 -615 20z m-825 -1965 c22 -5 161 -137 543 -518
l512 -512 508 507 c279 278 518 511 531 518 37 19 115 15 153 -7 40 -23 75
-73 84 -120 16 -86 25 -75 -589 -691 -316 -317 -589 -582 -609 -593 -47 -24
-109 -24 -156 0 -20 11 -293 276 -609 593 -489 491 -573 579 -583 615 -28 94
28 191 123 213 17 4 39 6 47 5 8 -2 29 -6 45 -10z"/>
</g>
</svg>
